<?xml version="1.0" encoding="utf-8"?>
<!-- Generator: Adobe Illustrator 21.0.0, SVG Export Plug-In . SVG Version: 6.00 Build 0)  -->
<svg version="1.1" id="Layer_1" xmlns="http://www.w3.org/2000/svg" xmlns:xlink="http://www.w3.org/1999/xlink" x="0px" y="0px"
	 viewBox="0 0 841.9 595.3" style="enable-background:new 0 0 841.9 595.3;" xml:space="preserve">
<style type="text/css">
	.st0{fill:#575756;}
	.st1{fill:#49BBBE;}
	.st2{fill:#00546B;}
	.st3{fill:#1D8E93;}
	.st4{fill:#86CCD1;}
	.st5{fill:#ABD9D7;}
	.st6{fill:#D978AE;}
	.st7{fill:#C7328A;}
	.st8{fill:#ECA3C8;}
	.st9{fill:#92134D;}
	.st10{fill:#37122E;}
	.st11{fill:#670F32;}
</style>
<g>
	<g>
		<g>
			<path class="st0" d="M399.6,288c-0.4,0.3-0.8,0.5-1.3,0.2c-0.6-0.3-0.7-1-0.4-1.7c0.2-0.4,0.4-0.6,0.6-0.8c0.1-0.1,0.2-0.1,0.2,0
				c0.1,0,0.1,0.2,0.1,0.3c0,0,0,0.1-0.1,0.1c-0.2,0.2-0.4,0.4-0.5,0.7c-0.2,0.4-0.2,0.9,0.3,1.1c0.3,0.1,0.6,0.1,0.8-0.2l0.6-0.5
				c0.4-0.3,0.9-0.6,1.5-0.3c0.7,0.3,0.8,1.1,0.5,1.8c-0.2,0.3-0.4,0.6-0.7,0.9c-0.1,0.1-0.2,0.1-0.2,0c-0.1,0-0.1-0.2-0.1-0.3
				c0,0,0-0.1,0.1-0.1c0.2-0.2,0.4-0.4,0.6-0.7c0.3-0.6,0.1-1-0.3-1.2c-0.4-0.2-0.7,0-1,0.3L399.6,288z"/>
			<path class="st0" d="M403.6,285.6c-0.1,0.1-0.3,0.2-0.4,0.1l-3.1-2.3c-0.1-0.1-0.2-0.3-0.1-0.4l1.1-1.5c0.1-0.1,0.2-0.1,0.3,0
				c0.1,0.1,0.1,0.2,0,0.3l-1,1.4l1.2,0.9l1-1.3c0.1-0.1,0.2-0.1,0.3,0c0.1,0.1,0.1,0.2,0,0.3l-1,1.3l1.3,1l1-1.4
				c0.1-0.1,0.2-0.1,0.3,0c0.1,0.1,0.1,0.2,0,0.3L403.6,285.6z"/>
			<path class="st0" d="M406.3,282.4c-0.1,0.1-0.3,0.1-0.4,0l-2.7-3c-0.1-0.1-0.1-0.2,0-0.3c0.1-0.1,0.2-0.1,0.3,0l2.6,2.9l1.3-1.2
				c0.1-0.1,0.2-0.1,0.3,0c0.1,0.1,0.1,0.2,0,0.3L406.3,282.4z"/>
			<path class="st0" d="M410.8,277.5c0.2,0.4,0.3,0.8,0.2,1.1c-0.1,0.4-0.3,0.7-0.7,0.9c-0.4,0.2-0.8,0.3-1.1,0.2
				c-0.4-0.1-0.7-0.3-0.9-0.7l-0.9-1.5c-0.2-0.4-0.3-0.8-0.2-1.1c0.1-0.4,0.3-0.7,0.7-0.9c0.4-0.2,0.8-0.3,1.1-0.2
				c0.4,0.1,0.7,0.3,0.9,0.7L410.8,277.5z M409.5,276.3c-0.2-0.3-0.4-0.4-0.6-0.5c-0.2-0.1-0.5,0-0.8,0.1c-0.3,0.2-0.4,0.4-0.5,0.6
				c-0.1,0.2,0,0.5,0.1,0.8l0.9,1.5c0.2,0.3,0.4,0.4,0.6,0.5c0.2,0.1,0.5,0,0.8-0.1c0.3-0.2,0.4-0.4,0.5-0.6c0.1-0.2,0-0.5-0.1-0.8
				L409.5,276.3z"/>
			<path class="st0" d="M416.1,277c-0.2,0-0.3-0.1-0.3-0.2L415,273c0-0.2,0.1-0.3,0.2-0.3l1-0.2c0.7-0.1,1.3,0.2,1.4,0.9
				c0.1,0.4-0.1,0.7-0.3,1c0.4,0.1,0.7,0.5,0.8,0.9c0.1,0.8-0.3,1.3-1,1.5L416.1,277z M416.5,274.4c0.5-0.1,0.8-0.5,0.7-0.9
				c-0.1-0.5-0.4-0.7-0.9-0.6l-0.8,0.2l0.3,1.5L416.5,274.4z M417,276.4c0.5-0.1,0.8-0.4,0.7-1c-0.1-0.5-0.6-0.7-1.1-0.6l-0.8,0.1
				l0.3,1.6L417,276.4z"/>
			<path class="st0" d="M420.2,272.2c0-0.1,0.1-0.2,0.2-0.2c0.1,0,0.2,0.1,0.2,0.2l0.1,4.2c0,0.1-0.1,0.2-0.2,0.2
				c-0.1,0-0.2-0.1-0.2-0.2L420.2,272.2z"/>
			<path class="st0" d="M423.6,274.4c-0.4-0.3-0.7-0.6-0.6-1.2c0.1-0.7,0.8-1,1.5-0.9c0.4,0.1,0.7,0.2,1,0.4c0.1,0,0.1,0.1,0.1,0.2
				c0,0.1-0.1,0.2-0.2,0.2c0,0-0.1,0-0.1,0c-0.2-0.1-0.5-0.3-0.8-0.3c-0.4-0.1-0.9,0.1-1,0.6c0,0.3,0.1,0.5,0.4,0.8l0.6,0.4
				c0.4,0.3,0.8,0.7,0.7,1.3c-0.1,0.8-0.8,1.1-1.5,1c-0.4-0.1-0.7-0.2-1-0.4c-0.1,0-0.1-0.1-0.1-0.2c0-0.1,0.1-0.2,0.2-0.2
				c0,0,0.1,0,0.1,0c0.3,0.2,0.5,0.3,0.9,0.3c0.6,0.1,1-0.2,1-0.7c0.1-0.4-0.2-0.7-0.5-0.9L423.6,274.4z"/>
			<path class="st0" d="M429.4,278.3c-0.1-0.1-0.2-0.2-0.1-0.3c0-0.1,0.1-0.1,0.1-0.1l2.3-1.1c0.2-0.1,0.5-0.3,0.7-0.6
				c0.2-0.4,0.1-0.9-0.3-1.1c-0.3-0.1-0.5-0.2-0.8-0.2c0,0-0.1,0-0.1,0c-0.1,0-0.2-0.2-0.1-0.3c0-0.1,0.1-0.1,0.2-0.1
				c0.4,0,0.7,0.1,1,0.2c0.6,0.3,0.9,1,0.5,1.6c-0.2,0.4-0.6,0.7-0.9,0.8l-2,1l1.4,0.7c0.1,0.1,0.2,0.2,0.1,0.3
				c-0.1,0.1-0.2,0.1-0.3,0.1L429.4,278.3z"/>
			<path class="st0" d="M435.3,282.3c-0.1-0.1-0.1-0.3,0-0.4l2.8-2.7c0.1-0.1,0.3-0.1,0.4,0l0.7,0.7c0.5,0.5,0.5,1.2,0,1.7
				c-0.3,0.3-0.7,0.4-1,0.3c0.1,0.4,0,0.9-0.3,1.2c-0.6,0.5-1.3,0.5-1.8,0L435.3,282.3z M436.3,282.7c0.3,0.4,0.8,0.4,1.2,0
				c0.3-0.3,0.3-0.9,0-1.3l-0.5-0.6l-1.2,1.2L436.3,282.7z M437.7,281.1c0.3,0.3,0.8,0.4,1.1,0.1c0.3-0.3,0.4-0.7,0-1.1l-0.6-0.6
				l-1.1,1L437.7,281.1z"/>
			<path class="st0" d="M441.6,283c0.1-0.1,0.2,0,0.3,0.1c0.1,0.1,0,0.2-0.1,0.3l-3.4,2.4c-0.1,0.1-0.2,0-0.3-0.1
				c-0.1-0.1,0-0.2,0.1-0.3L441.6,283z"/>
			<path class="st0" d="M441.7,287c0-0.5,0.1-0.9,0.7-1.2c0.6-0.3,1.3,0.1,1.6,0.7c0.2,0.4,0.2,0.7,0.3,1c0,0.1,0,0.2-0.1,0.2
				c-0.1,0-0.2,0-0.3-0.1c0,0,0-0.1,0-0.1c0-0.3-0.1-0.6-0.2-0.9c-0.2-0.4-0.5-0.7-1-0.5c-0.3,0.1-0.4,0.4-0.4,0.8l0,0.8
				c0,0.5-0.1,1.1-0.7,1.4c-0.7,0.3-1.4,0-1.7-0.7c-0.2-0.3-0.2-0.7-0.2-1.1c0-0.1,0-0.2,0.1-0.2c0.1,0,0.2,0,0.3,0.1
				c0,0,0,0.1,0,0.1c0,0.3,0.1,0.6,0.2,0.9c0.3,0.6,0.7,0.7,1.1,0.5c0.4-0.2,0.5-0.6,0.5-1L441.7,287z"/>
		</g>
		<g>
			<path class="st0" d="M398.3,309.9c-0.1-0.1,0-0.3,0.1-0.4l3.3-2c0.1-0.1,0.3,0,0.4,0.1l0.4,0.7c0.3,0.4,0.3,0.8,0.2,1.3
				c-0.1,0.4-0.4,0.7-0.8,1l-1,0.6c-0.4,0.3-0.8,0.3-1.2,0.2c-0.4-0.1-0.7-0.4-1-0.8L398.3,309.9z M401.8,310.2
				c0.6-0.4,0.8-1,0.4-1.6l-0.4-0.6l-3.1,1.9l0.4,0.6c0.4,0.6,1,0.8,1.6,0.4L401.8,310.2z"/>
			<path class="st0" d="M401.5,314.4c-0.1-0.1-0.1-0.3,0-0.4l2.8-2.6c0.1-0.1,0.3-0.1,0.4,0l1.3,1.4c0.1,0.1,0.1,0.2,0,0.3
				c-0.1,0.1-0.2,0.1-0.3,0l-1.2-1.3l-1.1,1l1.1,1.2c0.1,0.1,0.1,0.2,0,0.3c-0.1,0.1-0.2,0.1-0.3,0l-1.1-1.2l-1.2,1.1l1.2,1.3
				c0.1,0.1,0.1,0.2,0,0.3c-0.1,0.1-0.2,0.1-0.3,0L401.5,314.4z"/>
			<path class="st0" d="M408.1,319.8c-0.2-0.2-0.3-0.4-0.4-0.6c-0.1-0.4-0.1-0.7,0.2-1.1l0.8-1.5c0.2-0.4,0.5-0.6,0.9-0.7
				c0.4-0.1,0.7-0.1,1.1,0.2c0.4,0.2,0.6,0.5,0.7,0.9c0.1,0.4,0.1,0.7-0.2,1.1l-0.8,1.5c-0.2,0.4-0.5,0.6-0.9,0.7
				c-0.1,0-0.3,0-0.4,0l0.9,0.9c0.1,0.1,0.1,0.2,0,0.3c-0.1,0.1-0.2,0.1-0.3,0.1c0,0-0.1,0-0.1-0.1L408.1,319.8z M410.9,317.8
				c0.1-0.3,0.2-0.5,0.1-0.8c-0.1-0.2-0.3-0.4-0.5-0.6c-0.3-0.1-0.5-0.2-0.8-0.1c-0.2,0.1-0.4,0.3-0.6,0.5l-0.8,1.5
				c-0.2,0.3-0.2,0.5-0.1,0.8c0.1,0.2,0.2,0.4,0.5,0.6c0.3,0.1,0.5,0.2,0.8,0.1c0.2-0.1,0.4-0.3,0.6-0.5L410.9,317.8z"/>
			<path class="st0" d="M415.8,318.3c0-0.1,0.2-0.2,0.3-0.2c0.1,0,0.2,0.2,0.2,0.3l-0.8,2.8c-0.1,0.4-0.4,0.7-0.7,0.9
				c-0.3,0.2-0.7,0.2-1.1,0.1c-0.4-0.1-0.7-0.4-0.9-0.7c-0.2-0.3-0.2-0.7-0.1-1.1l0.8-2.8c0-0.1,0.2-0.2,0.3-0.2
				c0.1,0,0.2,0.2,0.2,0.3l-0.8,2.8c-0.1,0.3-0.1,0.6,0,0.8c0.1,0.2,0.3,0.4,0.6,0.5c0.3,0.1,0.6,0.1,0.8-0.1
				c0.2-0.1,0.4-0.4,0.5-0.7L415.8,318.3z"/>
			<path class="st0" d="M419.8,321.9l-1.7-0.1l-0.5,1.1c0,0.1-0.1,0.1-0.2,0.1c-0.1,0-0.2-0.1-0.2-0.2c0,0,0,0,0-0.1l1.7-4
				c0-0.1,0.1-0.2,0.3-0.1c0.1,0,0.2,0.1,0.2,0.2l1.1,4.2c0,0,0,0,0,0.1c0,0.1-0.1,0.2-0.2,0.2c-0.1,0-0.2-0.1-0.2-0.2L419.8,321.9z
				 M419.1,319.3l-0.9,2.1l1.4,0.1L419.1,319.3z"/>
			<path class="st0" d="M423.1,323.1c-0.2,0-0.3-0.1-0.3-0.3l-0.5-4c0-0.1,0.1-0.2,0.2-0.2c0.1,0,0.2,0.1,0.2,0.2l0.5,3.9l1.7-0.2
				c0.1,0,0.2,0.1,0.2,0.2c0,0.1-0.1,0.2-0.2,0.2L423.1,323.1z"/>
			<path class="st0" d="M426.3,318.2c0-0.1,0-0.2,0.2-0.3c0.1,0,0.2,0,0.3,0.2l1.1,4c0,0.1,0,0.2-0.2,0.3c-0.1,0-0.2,0-0.3-0.2
				L426.3,318.2z"/>
			<path class="st0" d="M430.6,321.3c-0.2,0.1-0.3,0-0.4-0.1l-1.6-3.5c-0.1-0.2,0-0.3,0.1-0.4l0.8-0.3c0.4-0.2,0.9-0.2,1.3-0.1
				c0.4,0.1,0.7,0.4,0.9,0.9l0.5,1.1c0.2,0.4,0.2,0.9,0.1,1.3c-0.2,0.4-0.5,0.7-0.9,0.9L430.6,321.3z M431.3,317.9
				c-0.3-0.7-0.9-0.9-1.6-0.6l-0.6,0.3l1.5,3.3l0.6-0.3c0.7-0.3,0.9-0.9,0.6-1.6L431.3,317.9z"/>
			<path class="st0" d="M436,316.8l-1.4,1l0.4,1.2c0,0.1,0,0.2-0.1,0.2c-0.1,0.1-0.2,0-0.3,0c0,0,0,0,0-0.1l-1.3-4.2
				c0-0.1,0-0.2,0.1-0.3c0.1-0.1,0.2-0.1,0.3,0l3.6,2.5c0,0,0,0,0.1,0c0.1,0.1,0,0.2,0,0.3c-0.1,0.1-0.2,0.1-0.3,0L436,316.8z
				 M433.8,315.2l0.7,2.1l1.1-0.8L433.8,315.2z"/>
			<path class="st0" d="M439.3,315.5c-0.1,0.1-0.3,0.1-0.4,0l-2.9-2.6c-0.1-0.1-0.1-0.3,0-0.4l0.6-0.6c0.3-0.4,0.7-0.6,1.1-0.6
				c0.4,0,0.8,0.1,1.2,0.5l0.9,0.8c0.4,0.3,0.6,0.7,0.6,1.1c0,0.4-0.1,0.8-0.5,1.2L439.3,315.5z M438.5,312
				c-0.5-0.5-1.2-0.5-1.7,0.1l-0.5,0.5l2.7,2.4l0.5-0.5c0.5-0.6,0.5-1.2-0.1-1.7L438.5,312z"/>
			<path class="st0" d="M442.6,311.2c-0.1,0.1-0.3,0.2-0.4,0.1l-3.3-2c-0.1-0.1-0.2-0.3-0.1-0.4l0.9-1.6c0.1-0.1,0.2-0.1,0.3-0.1
				c0.1,0.1,0.1,0.2,0.1,0.3l-0.9,1.5l1.3,0.8l0.8-1.4c0.1-0.1,0.2-0.1,0.3-0.1c0.1,0.1,0.1,0.2,0.1,0.3l-0.8,1.4l1.4,0.9l0.9-1.5
				c0.1-0.1,0.2-0.1,0.3-0.1c0.1,0.1,0.1,0.2,0.1,0.3L442.6,311.2z"/>
		</g>
	</g>
	<g>
		<path class="st0" d="M423,296.7c0.5-0.7,1.1-1.7,1.1-3c0-2-1.3-3.3-3.3-3.3c-0.9,0-1.6,0.1-2.5,0.5l0.5,1c0.7-0.4,1.3-0.5,2.1-0.5
			c1.3,0,2.1,0.9,2.1,2.2c0,0.9-0.5,1.8-0.9,2.3l-4.3,5.5c-0.1,0.1-0.1,0.3-0.1,0.4c0,0.4,0.3,0.7,0.7,0.7h5.1v-1.1h-4.2L423,296.7z
			"/>
		<path class="st0" d="M411,293.9c-0.3,0-0.5,0-0.8,0.1v1.1c0.3-0.1,0.5-0.1,0.8-0.1c1.2,0,2,0.7,2,2v2.9c0,1.2-0.7,2-2,2
			c-0.7,0-1.4-0.1-2-0.3v-10.3h-1.2v10.5c0,0.3,0.2,0.7,0.6,0.8c0.8,0.3,1.7,0.4,2.6,0.4c1.9,0,3.1-1.3,3.1-3.2V297
			C414.2,295.1,413,293.9,411,293.9z"/>
		<path class="st0" d="M430.9,293.9c-0.3,0-0.5,0-0.8,0.1v1.1c0.3-0.1,0.5-0.1,0.8-0.1c1.2,0,2,0.7,2,2v2.9c0,1.2-0.7,2-2,2
			c-0.7,0-1.4-0.1-2-0.3v-10.3h-1.2v10.5c0,0.3,0.2,0.7,0.6,0.8c0.8,0.3,1.7,0.4,2.6,0.4c1.9,0,3.1-1.3,3.1-3.2V297
			C434,295.1,432.8,293.9,430.9,293.9z"/>
	</g>
	<polygon class="st1" points="429.7,286.6 430.8,281.9 425,283.7 	"/>
	<polygon class="st2" points="430.8,281.9 417.6,279.2 425,283.7 	"/>
	<polygon class="st3" points="417,286.1 417,286.1 417,286.1 425,283.7 417.6,279.2 417,286.1 	"/>
	<polygon class="st4" points="425,283.7 417,286.1 416.8,288.4 429,289.4 429.7,286.6 	"/>
	<polygon class="st4" points="417.6,279.2 407.7,283.5 417,286.1 	"/>
	<polygon class="st3" points="429.7,286.6 429,289.4 438.2,291.8 	"/>
	<polygon class="st3" points="404.1,290.1 416.8,288.4 417,286.1 	"/>
	<polygon class="st2" points="417,286.1 407.7,283.5 404.1,290.1 417,286.1 	"/>
	<polygon class="st5" points="438.2,291.8 430.8,281.9 429.7,286.6 	"/>
	<g>
		<polygon class="st6" points="416.8,307.3 416.8,307.3 416.8,307.3 424.1,308.6 425.3,305.9 415.5,304.6 416.8,307.3 		"/>
		<polygon class="st7" points="416.8,307.3 403.6,305.1 410.4,312.4 416.8,307.4 		"/>
		<polygon class="st8" points="415.5,304.6 403.6,305.1 416.8,307.3 		"/>
		<polygon class="st7" points="425.3,305.9 432.6,310.1 437.4,305 		"/>
		<polygon class="st9" points="420.8,315.7 432.6,310.1 424.1,308.6 		"/>
		<polygon class="st9" points="410.4,312.4 420.8,315.7 416.8,307.4 		"/>
		<polygon class="st10" points="424.1,308.6 432.6,310.1 425.3,305.9 		"/>
		<polygon class="st11" points="416.8,307.3 416.8,307.4 420.8,315.7 424.1,308.6 		"/>
	</g>
</g>
</svg>
